<svg width="614" height="511" viewBox="0 0 614 511" fill="none" xmlns="http://www.w3.org/2000/svg">
<path d="M127.939 91.1054C131.037 87.4543 134.472 82.5862 132.254 78.2708C144.648 70.9686 155.602 61.3365 164.561 50.055C159.693 53.9304 154.385 57.0289 148.74 59.463C191.119 17.6359 254.853 -1.39589 313.382 10.3338C266.246 8.56431 218.23 21.0628 179.277 47.621C140.221 74.0672 110.572 114.669 99.1784 160.475C116.433 110.353 152.839 67.0932 199.31 41.6481C195.659 45.4112 192 49.2784 188.245 53.0416C205.948 45.7395 221.985 34.7863 239.584 27.148C291.251 4.57699 353.431 13.0962 401.559 42.5289C449.688 71.9613 484.325 120.202 504.461 172.87C513.309 195.881 519.506 221.438 511.651 244.786C509.882 214.36 499.922 185.04 486.975 157.489C465.509 111.571 434.755 68.5346 391.495 42.2005C348.235 15.9785 291.027 9.00476 246.774 33.6815C269.457 31.2475 292.356 29.9182 314.815 33.1289C357.082 39.102 396.139 61.2325 425.788 91.8741C455.332 122.636 475.805 161.468 487.864 202.294C499.593 242.24 503.46 286.277 488.416 325.221C532.341 254.186 525.039 155.279 471.378 91.4336C448.919 64.7713 419.815 44.2982 388.396 29.4779C352.102 12.4397 312.269 2.59142 272.219 3.69621C232.17 4.80122 192.112 17.3078 160.141 41.4239C186.692 17.9643 221.321 4.6891 256.51 1.03816C291.804 -2.50088 327.537 3.25594 361.07 14.5374C430.768 38.2132 494.277 90.441 514.75 161.14C519.946 179.283 522.268 198.091 524.374 216.907C526.144 233.168 527.585 249.43 527.248 265.803C525.703 346.687 474.028 425.689 398.685 455.226C377.331 463.529 354.76 468.061 332.077 471.271C295.783 476.356 258.168 477.909 223.202 467.068C205.171 461.423 188.349 452.68 172.752 441.951C108.138 397.69 67.3119 320.577 67.3119 242.24C67.3119 228.3 68.5288 214.473 70.4105 200.749C72.0678 188.138 74.2776 175.632 77.9288 163.462C83.4613 145.535 92.0925 128.609 103.494 113.676C105.48 112.459 107.473 111.13 109.355 109.801C83.1331 165.231 67.528 230.734 91.5402 287.269C82.9088 250.431 82.3564 211.814 89.9949 174.856C92.4289 173.975 94.8629 172.982 97.1848 171.981C97.2976 169.547 97.401 167.225 97.513 164.791C95.7437 166.785 94.0863 168.77 92.3168 170.652C96.4082 141.331 109.019 113.564 127.939 91.1054ZM145.753 89.6643C152.615 85.0202 159.477 80.3685 166.339 75.7246C162.023 84.4679 154.056 91.3215 144.761 94.4203C101.612 139.01 88.3295 205.505 93.4218 267.245C95.4153 290.592 100.171 314.821 115.216 332.747C104.711 289.591 104.151 244.009 113.783 200.637C115.664 200.524 116.321 202.959 116.321 204.841C117.097 233.945 112.117 263.041 114.223 292.138C116.321 321.13 127.17 351.78 151.51 367.601C170.542 379.987 189.462 392.382 208.382 404.776C164.121 390.612 125.505 359.85 101.612 320.025C108.026 337.391 116.985 353.877 128.051 368.706C126.617 364.718 125.288 360.627 123.847 356.535C135.024 367.048 146.306 377.337 157.483 387.737C165.674 395.368 178.509 403.11 186.916 395.808C188.245 398.579 185.811 402.005 182.824 402.782C179.83 403.671 176.627 402.782 173.641 401.893C187.028 411.525 200.968 420.373 215.348 428.452C213.25 428.78 212.585 431.878 213.914 433.648C215.235 435.425 217.453 435.866 219.551 436.418C272.331 447.812 328.538 443.608 378.989 424.136C335.616 434.312 289.37 436.642 247.326 421.926C211.809 409.532 180.719 385.079 160.358 353.549C153.832 343.364 148.412 332.635 143.431 321.682C127.386 285.612 117.209 246.227 120.084 206.834C122.966 167.449 140.221 128.168 171.207 103.828C174.409 101.282 178.397 98.8478 182.376 99.8407C151.839 121.971 133.695 158.594 128.939 195.993C124.183 233.496 131.926 271.56 145.537 306.742C155.273 331.642 168.212 355.759 186.027 375.671C193.666 384.191 202.297 391.941 212.137 397.802C230.176 408.643 251.53 412.742 272.443 415.393C300.875 419.044 329.531 420.597 358.187 419.933C322.005 428.451 284.165 422.366 247.543 416.281C309.731 439.629 382.639 425.353 436.084 386.072C446.701 378.218 456.773 369.482 464.844 358.969C477.239 342.812 484.653 323.123 488.416 303.091C498.152 250.871 484.212 196.321 458.871 149.522C441.281 116.991 417.933 86.9019 387.179 66.4288C358.411 47.397 324.223 37.3325 289.81 35.4508C236.926 32.3523 180.943 49.831 145.753 89.6643ZM249.648 449.029C273.436 455.002 297.448 459.317 321.789 462.2C291.916 469.053 261.154 458.549 232.282 448.26C215.235 442.279 197.981 436.082 182.16 427.235C143.872 405.993 115.104 369.586 98.4018 329.097C95.5274 321.906 92.8692 314.708 90.6594 307.406C90.4352 306.526 89.7706 308.623 90.6594 308.183C91.5401 307.855 91.428 306.526 90.9878 305.637C81.0274 281.633 74.9421 255.851 73.0607 229.958C71.1791 269.126 80.9152 308.511 98.618 343.589C117.874 381.757 146.754 415.288 183.041 437.963C219.223 460.646 262.811 472.152 305.303 468.061C365.049 462.2 417.493 427.347 465.621 391.605C444.379 419.708 412.184 437.083 380.87 453.456C434.971 438.3 478.344 395.48 504.461 345.694C491.515 367.817 471.266 385.191 449.247 398.242C427.117 411.301 402.888 420.373 378.66 429.116C368.035 432.991 357.306 436.747 346.353 439.845C315.039 448.813 282.067 451.911 249.648 449.029ZM470.929 374.238C476.462 369.034 481.89 363.725 486.31 357.752C493.284 348.128 497.928 336.951 502.356 325.886C508.329 310.841 514.414 295.677 515.967 279.527C513.084 282.073 512.092 285.836 510.987 289.487C496.271 340.49 459.872 384.967 412.625 409.308C434.867 404.327 454.003 389.835 470.929 374.238ZM200.527 428.452C202.849 429.004 205.724 429.997 205.836 432.327C206.716 430.773 209.375 430.773 210.367 432.327C210.816 432.214 210.48 431.438 209.927 431.214C206.612 429.444 203.29 427.675 200.079 425.905C186.692 418.715 174.409 409.756 163.456 399.355C162.127 402.23 163.128 405.881 165.674 407.65C170.542 411.189 175.41 414.728 180.278 418.275C186.139 423.143 193.113 426.682 200.527 428.452ZM520.058 261.16C519.618 269.35 519.17 277.645 518.617 285.836C518.513 286.941 518.513 288.046 518.513 289.151C518.4 291.145 518.289 293.138 518.064 295.02C517.952 297.454 517.848 299.664 517.848 302.098C522.492 283.29 524.15 263.594 522.716 244.346C522.164 244.121 521.603 243.793 521.163 243.457C520.835 249.318 520.386 255.187 520.058 261.16M89.9944 139.898C89.2178 141.331 88.5533 142.773 87.8886 144.214C88.6652 145.207 90.0986 143.99 90.4347 142.773C90.7631 141.668 91.0993 140.114 92.3164 140.01C91.764 139.45 91.2113 138.897 90.6589 138.345C90.4347 138.793 90.2105 139.45 90.4347 139.898M170.43 48.0615C171.534 47.1807 172.64 46.2919 173.745 45.2991C171.863 44.5224 169.429 45.5153 168.66 47.5089C169.213 47.7331 169.765 47.9493 170.43 48.0615ZM173.856 42.865C176.29 43.4176 179.061 42.7523 181.047 41.0955C178.508 40.9828 175.962 41.536 173.856 42.865ZM85.7909 155.167C85.6782 154.615 85.5666 154.062 85.5666 153.614C83.461 154.39 82.4681 157.265 83.6852 159.146C84.1255 157.713 84.79 156.384 85.7909 155.167ZM73.2844 211.59C72.732 212.367 73.1716 213.696 74.1731 213.808C74.7257 212.039 74.6136 210.157 74.0604 208.275C72.9556 208.828 72.6192 210.373 73.2838 211.374" fill="currentColor"/>
<path d="M147.859 60.0154C148.075 60.3437 148.3 60.784 148.524 61.1204C147.523 62.5536 145.641 63.2181 143.984 62.7778C144.873 61.5607 146.202 60.6799 147.635 60.3438" fill="currentColor"/>
<path d="M139.116 67.0933C140.669 66.5409 142.326 66.2045 143.984 66.3166C143.656 68.7506 139.556 69.4152 138.563 67.0933" fill="currentColor"/>
<path d="M133.583 62.0011C134.584 60.4559 136.458 59.3509 138.451 59.5671C138.892 60.6799 138.564 62.0011 137.675 62.7778C136.129 63.0018 134.248 63.2181 133.143 62.0011" fill="currentColor"/>
<path d="M443.715 69.3032C444.379 69.1987 445.044 69.8556 444.932 70.5202C444.819 71.1847 444.051 71.6332 443.386 71.4089C442.386 70.3039 441.393 69.087 440.4 67.8699C441.505 66.9811 443.49 67.7571 443.715 69.087" fill="currentColor"/>
<path d="M143.544 52.9295C144.32 52.0487 145.866 52.0487 146.754 52.8168C145.313 54.2579 143.432 55.2508 141.438 55.9153C141.222 54.6982 142.327 53.265 143.544 53.3692" fill="currentColor"/>
<path d="M125.4 155.832C126.393 154.39 129.052 154.943 129.38 156.712C128.051 156.496 126.618 156.937 125.729 157.929C125.176 158.153 124.287 157.713 124.287 157.049C124.183 156.496 124.848 155.832 125.505 155.936" fill="currentColor"/>
<path d="M188.685 85.0202C189.238 84.7962 190.014 84.572 190.567 84.7962C191.231 85.0202 191.56 86.0131 191.119 86.4534C189.014 87.7827 186.58 88.5593 184.146 88.6714C185.258 87.1182 186.916 85.901 188.685 85.0202Z" fill="currentColor"/>
<path d="M221.321 430.773C222.434 431.55 223.65 432.327 224.756 433.095C222.321 434.096 219.447 433.544 217.453 431.774C217.013 430.998 217.894 429.893 218.67 429.893C219.663 429.78 220.552 430.333 221.321 430.773Z" fill="currentColor"/>
<path d="M170.758 74.8358C170.206 73.1784 170.646 71.1847 171.975 69.9678C172.864 69.7515 173.745 69.087 174.081 68.0861C175.514 68.6385 176.844 69.1991 178.285 69.7515C175.851 71.4089 173.304 73.0663 170.758 74.8358Z" fill="currentColor"/>
<path d="M116.769 193.671C116.769 193.007 116.769 192.342 116.769 191.678C117.874 191.125 119.091 191.125 120.084 191.565C118.098 193.67 116.985 196.545 117.21 199.419C115.993 198.539 114.663 197.538 113.334 196.657C114.447 195.768 115.664 194.775 116.881 193.775" fill="currentColor"/>
<path d="M109.467 95.9735C109.907 92.5386 111.901 89.44 114.663 87.3422C115.44 86.7898 116.657 86.4534 117.097 87.2294C114.663 89.6634 112.67 92.4258 111.237 95.5244C110.9 96.085 110.019 96.4132 109.467 95.9729" fill="currentColor"/>
<path d="M120.861 164.567C123.071 162.909 125.176 161.252 127.386 159.587C126.834 161.692 126.281 163.574 125.729 165.672C124.952 166.12 124.4 166.897 123.631 167.337C122.854 167.777 121.749 167.89 121.197 167.113C120.749 166.336 121.965 165.231 122.414 166.008C121.965 165.568 121.413 165.119 120.861 164.567Z" fill="currentColor"/>
<path d="M205.171 78.8232C204.947 79.3756 204.731 79.9282 204.947 80.5927C203.177 80.9208 201.52 81.2572 199.967 81.5854C199.751 82.25 199.526 82.9146 199.31 83.5791C197.981 83.4664 196.652 83.4664 195.435 83.4664C194.33 82.914 195.435 81.3687 196.54 80.8161C198.75 79.7033 201.08 79.0386 203.514 78.7104C203.177 78.158 202.849 77.7175 202.513 77.1651C204.282 75.724 206.388 74.7311 208.71 74.0666C209.15 74.8352 209.263 75.724 209.046 76.6045C208.27 76.9409 207.493 77.053 206.716 76.8288C206.829 77.3814 206.941 77.9338 207.053 78.5983C206.276 78.8225 205.724 78.9347 205.171 78.8225" fill="currentColor"/>
<path d="M118.651 89.2238C119.531 88.6714 120.749 88.4472 121.749 88.6714C121.301 88.1188 120.973 87.5584 120.636 87.006C121.749 86.7898 122.854 86.5655 124.071 86.4534C124.512 85.3486 124.512 84.0194 124.071 82.9146C125.288 82.8019 126.617 83.0273 127.722 83.467C128.051 83.9075 128.163 84.572 128.051 85.1244C127.498 85.3486 126.834 85.5729 126.169 85.7889C125.953 86.9019 125.617 88.0069 125.4 89.1117C124.848 89.44 123.959 89.5522 123.295 89.336C122.302 95.309 115.768 98.7357 113.446 104.268C112.67 106.15 111.901 108.584 109.907 108.584C109.355 107.92 109.467 106.703 110.236 106.15C109.467 105.926 108.803 105.71 108.138 105.485C108.025 104.269 110.02 104.605 111.012 105.373C111.901 104.604 111.125 102.827 110.02 102.827C111.237 101.834 112.013 100.288 112.229 98.7351C113.446 98.8478 114.663 98.4069 115.44 97.5182C114.551 97.7422 113.559 97.0777 113.334 96.085C115.104 96.4132 116.881 94.7558 116.769 92.9863C118.098 92.2096 119.419 91.433 120.749 90.6564C120.196 90.3282 119.419 89.7756 118.651 89.2232" fill="currentColor"/>
<path d="M466.173 95.0847C463.739 91.77 461.193 88.5593 458.103 85.7889C453.787 81.9217 448.254 78.4868 447.366 72.7379C473.371 94.7564 493.396 123.853 504.566 156.048C505.566 156.937 504.461 158.93 503.245 158.594C493.508 136.135 481.002 114.669 466.173 95.0847Z" fill="currentColor"/>
<path d="M174.081 77.606C178.613 73.9551 183.817 70.5202 185.699 64.9876C186.251 63.4423 187.797 62.2252 189.238 61.3364C211.585 47.2848 237.702 39.5422 264.028 39.1019C250.865 42.6408 237.806 46.0677 224.643 49.6147C204.178 55.0352 189.126 71.9613 175.298 88.1188C163.344 102.171 151.286 116.222 139.34 130.378C137.899 134.254 136.57 138.233 135.137 142.108C134.584 143.878 133.92 145.647 132.366 146.752C130.933 147.865 128.499 147.865 127.61 146.199C132.919 136.912 138.235 127.504 143.656 118.096C152.287 103.492 160.91 88.4471 174.081 77.606Z" fill="currentColor"/>
<path d="M0 504.91C168.617 503.907 336.776 518.493 505.25 503.111C530.963 500.763 586.755 499.863 613.938 489.098" fill="currentColor"/>
</svg>
